<svg width="38" height="27" viewBox="0 0 38 27" fill="none" xmlns="http://www.w3.org/2000/svg">
<path d="M37.228 0.573998C36.808 0.685998 36.402 0.797998 36.01 0.909998C34.974 1.162 33.966 1.33 32.986 1.414C31.642 1.582 30.424 1.596 29.332 1.456C26.084 1.064 23.13 1.008 20.47 1.288C18.034 1.568 15.85 2.1 13.918 2.884C12.182 3.612 10.67 4.55 9.382 5.698C8.234 6.706 7.254 7.868 6.442 9.184C5.77 10.304 5.224 11.522 4.804 12.838C4.468 13.902 4.23 14.994 4.09 16.114C4.006 16.982 3.964 17.78 3.964 18.508C3.992 19.124 4.034 19.446 4.09 19.474L4.804 19.054C5.392 18.718 5.98 18.424 6.568 18.172C7.408 17.808 8.178 17.57 8.878 17.458C11.706 16.982 14.394 16.282 16.942 15.358C19.126 14.574 21.198 13.65 23.158 12.586C24.698 11.718 26.14 10.78 27.484 9.772C28.436 9.044 29.29 8.316 30.046 7.588L30.886 6.706L29.92 7.756C29.108 8.624 28.198 9.492 27.19 10.36C25.79 11.536 24.306 12.614 22.738 13.594C20.834 14.826 18.86 15.848 16.816 16.66C14.408 17.64 11.958 18.326 9.466 18.718C8.066 18.942 6.54 19.726 4.888 21.07C3.404 22.33 1.99 23.884 0.646 25.732L1.654 25.816C2.382 25.872 2.9 25.942 3.208 26.026C4.328 24.43 5.686 23.142 7.282 22.162C10.278 24.15 13.302 25.312 16.354 25.648C18.902 25.956 21.408 25.662 23.872 24.766C25.86 24.066 27.722 23.03 29.458 21.658C30.83 20.566 31.908 19.46 32.692 18.34C33.812 16.772 34.736 15.078 35.464 13.258C36.08 11.718 36.542 10.122 36.85 8.47C37.13 7.126 37.298 5.768 37.354 4.396C37.382 3.444 37.368 2.52 37.312 1.624L37.228 0.573998Z" fill="#1BB71F"/>
</svg>
