<svg width="26" height="38" viewBox="0 0 26 38" fill="none" xmlns="http://www.w3.org/2000/svg">
<path d="M25.642 7.834V33.076H23.332V29.758L17.578 32.866V7.624C17.354 6.168 16.822 4.852 15.982 3.676C15.142 2.5 14.106 1.576 12.874 0.903998H18.712C20.476 1.156 22.002 1.926 23.29 3.214C24.578 4.474 25.362 6.014 25.642 7.834ZM16.444 7.834V37.696H14.134V32.74L2.668 31.102V35.386H0.358001V7.834C0.554001 6.518 1.03 5.342 1.786 4.306C2.57 3.242 3.536 2.416 4.684 1.828C5.832 1.212 7.064 0.903998 8.38 0.903998C9.696 0.903998 10.928 1.212 12.076 1.828C13.252 2.416 14.218 3.242 14.974 4.306C15.758 5.342 16.248 6.518 16.444 7.834ZM13 7.834H3.802V12.412H13V7.834Z" fill="#1BB71F"/>
</svg>
