<svg width="36" height="39" viewBox="0 0 36 39" fill="none" xmlns="http://www.w3.org/2000/svg">
<path d="M34.548 24.97C33.82 24.97 33.26 24.984 32.868 25.012C33.708 24.704 34.45 24.592 35.094 24.676C35.178 24.676 35.22 24.634 35.22 24.55C35.22 23.962 35.178 23.374 35.094 22.786C35.066 22.702 35.01 22.66 34.926 22.66C34.366 22.604 33.848 22.66 33.372 22.828L32.532 23.038C33.148 22.646 33.652 22.422 34.044 22.366L34.842 22.282C34.954 22.282 34.996 22.24 34.968 22.156C34.884 21.596 34.758 21.064 34.59 20.56C34.562 20.476 34.478 20.406 34.338 20.35C33.918 20.266 33.47 20.266 32.994 20.35C32.322 20.434 31.748 20.574 31.272 20.77C31.384 20.686 31.58 20.588 31.86 20.476L31.944 20.434C32.756 19.986 33.512 19.804 34.212 19.888C34.352 19.888 34.394 19.832 34.338 19.72C34.254 19.412 34.086 18.964 33.834 18.376L33.708 18.082C33.68 17.998 33.638 17.942 33.582 17.914H33.54C32.308 17.718 31.104 17.928 29.928 18.544L29.844 18.586C29.732 18.67 29.634 18.726 29.55 18.754C30.026 18.306 30.628 17.942 31.356 17.662C32 17.382 32.7 17.284 33.456 17.368L33.372 17.242C33.12 16.794 32.938 16.458 32.826 16.234C32.714 15.982 32.504 15.828 32.196 15.772C32.14 15.772 32.042 15.758 31.902 15.73C31.762 15.702 31.65 15.688 31.566 15.688C30.418 15.688 29.242 16.01 28.038 16.654C27.982 16.71 27.94 16.738 27.912 16.738H27.87C27.814 16.766 27.772 16.766 27.744 16.738C28.528 16.15 29.228 15.73 29.844 15.478C30.628 15.17 31.426 15.086 32.238 15.226C32.014 14.834 31.846 14.568 31.734 14.428C31.622 14.288 31.538 14.204 31.482 14.176C31.286 14.064 30.992 13.952 30.6 13.84C30.068 13.7 29.494 13.714 28.878 13.882C28.486 13.966 27.94 14.162 27.24 14.47C26.932 14.61 26.568 14.834 26.148 15.142V15.184C26.092 15.24 26.036 15.24 25.98 15.184L26.484 14.68C26.568 14.596 26.708 14.498 26.904 14.386L27.198 14.176C27.982 13.56 28.864 13.238 29.844 13.21C30.32 13.21 30.712 13.28 31.02 13.42L30.894 13.21C30.782 13.014 30.726 12.874 30.726 12.79C30.67 12.034 30.74 11.39 30.936 10.858C31.132 10.298 31.23 9.794 31.23 9.346C31.23 8.702 31.09 8.03 30.81 7.33C30.586 6.826 30.25 6.238 29.802 5.566C29.69 5.398 29.508 5.16 29.256 4.852L29.046 4.642C28.542 4.026 27.912 3.48 27.156 3.004C26.26 2.444 25.546 2.08 25.014 1.912L23.292 1.366C22.844 1.226 22.144 1.114 21.192 1.03L20.688 0.987999C20.072 0.931998 19.596 0.917998 19.26 0.945997H19.05C18.854 0.917998 18.7 0.931998 18.588 0.987999C18.56 0.931998 18.504 0.917998 18.42 0.945997H18.336C17.832 0.945997 17.062 0.987998 16.026 1.072L15.228 1.156C15.06 1.156 14.808 1.184 14.472 1.24L13.968 1.324C14.192 1.436 14.514 1.576 14.934 1.744C15.634 2.052 16.138 2.304 16.446 2.5H16.362C15.662 2.276 14.836 2.094 13.884 1.954C12.82 1.786 11.728 1.814 10.608 2.038C10.272 2.122 9.768 2.276 9.096 2.5L8.256 2.794C7.584 3.018 6.87 3.368 6.114 3.844C5.414 4.236 4.742 4.754 4.098 5.398C3.622 5.874 3.23 6.322 2.922 6.742C2.306 7.554 1.844 8.422 1.536 9.346C1.06 10.774 0.808 11.922 0.78 12.79V12.832C0.724 14.12 0.752 15.086 0.864 15.73C0.976 16.29 1.256 17.102 1.704 18.166C1.9 18.558 2.138 18.88 2.418 19.132C2.53 17.368 2.866 15.968 3.426 14.932C3.454 14.96 3.454 15.002 3.426 15.058V15.1C2.978 16.668 2.81 18.138 2.922 19.51C2.922 19.622 2.964 19.72 3.048 19.804C3.3 20.056 3.72 20.392 4.308 20.812L4.938 21.316L5.694 21.82C5.75 20.252 5.82 19.076 5.904 18.292C6.044 17.004 6.296 15.87 6.66 14.89V14.974C6.464 15.814 6.352 16.556 6.324 17.2C6.156 18.74 6.156 20.28 6.324 21.82C6.324 21.988 6.338 22.128 6.366 22.24C6.422 22.324 6.52 22.38 6.66 22.408C6.716 22.408 6.772 22.436 6.828 22.492C7.304 22.8 8.06 23.178 9.096 23.626L9.348 23.752C9.432 23.808 9.488 23.822 9.516 23.794C9.544 23.766 9.558 23.696 9.558 23.584C9.502 22.912 9.446 21.904 9.39 20.56C9.39 19.3 9.404 18.362 9.432 17.746L9.474 17.2C9.558 15.996 9.67 15.1 9.81 14.512L9.852 14.386C9.88 14.274 9.908 14.204 9.936 14.176C9.768 15.744 9.726 17.452 9.81 19.3C9.894 20.784 10.09 22.352 10.398 24.004C10.398 24.088 10.454 24.158 10.566 24.214L11.238 24.466C11.742 24.634 12.134 24.76 12.414 24.844C13.702 25.208 14.906 25.586 16.026 25.978C16.166 26.006 16.222 25.95 16.194 25.81V25.768C16.194 25.068 15.998 24.256 15.606 23.332C15.298 22.52 14.878 21.75 14.346 21.022C13.814 20.294 13.464 19.72 13.296 19.3C12.932 18.404 12.582 17.298 12.246 15.982V15.898C12.218 15.814 12.218 15.744 12.246 15.688C12.414 16.472 12.722 17.326 13.17 18.25C13.534 19.034 14.024 19.832 14.64 20.644C15.256 21.316 15.76 21.792 16.152 22.072C17.02 22.688 17.79 23.094 18.462 23.29C19.498 23.626 20.45 23.808 21.318 23.836C22.41 23.892 23.404 23.836 24.3 23.668C24.916 23.584 25.476 23.458 25.98 23.29C24.916 22.31 24.174 21.148 23.754 19.804C23.81 19.86 23.852 19.916 23.88 19.972C24.16 20.476 24.454 20.924 24.762 21.316C25.21 21.876 25.644 22.31 26.064 22.618C26.148 22.674 26.26 22.758 26.4 22.87C26.624 23.038 26.806 23.15 26.946 23.206C27.45 23.374 27.828 23.696 28.08 24.172C28.528 24.9 28.794 25.642 28.878 26.398C29.158 28.554 28.934 30.486 28.206 32.194C27.814 33.202 27.184 33.93 26.316 34.378C26.204 34.434 26.064 34.476 25.896 34.504C25.728 34.56 25.588 34.588 25.476 34.588L25.644 34.504C26.008 34.392 26.33 34.14 26.61 33.748C26.778 33.636 26.778 33.524 26.61 33.412C26.386 33.244 26.232 32.964 26.148 32.572C25.952 32.068 25.896 31.536 25.98 30.976C26.036 30.584 26.176 30.08 26.4 29.464C26.54 29.1 26.792 28.596 27.156 27.952L27.534 27.28C27.758 26.888 27.898 26.594 27.954 26.398L27.996 26.23C28.024 26.062 27.996 25.95 27.912 25.894C27.856 25.81 27.716 25.81 27.492 25.894H27.408C26.988 26.09 26.498 26.16 25.938 26.104C25.602 26.104 25.126 26.048 24.51 25.936C24.23 25.88 24.034 25.908 23.922 26.02C23.838 26.104 23.81 26.3 23.838 26.608C23.922 27.252 23.852 27.896 23.628 28.54C23.572 28.736 23.46 29.03 23.292 29.422C23.096 29.898 22.97 30.262 22.914 30.514C22.662 31.606 22.55 32.67 22.578 33.706C22.634 34.378 22.76 34.924 22.956 35.344C23.348 36.044 23.95 36.618 24.762 37.066C26.19 37.794 27.73 37.864 29.382 37.276C30.334 36.884 31.23 36.268 32.07 35.428L32.658 34.756C32.966 34.336 33.246 33.93 33.498 33.538C33.554 33.426 33.568 33.342 33.54 33.286C33.54 33.23 33.47 33.188 33.33 33.16V33.118H33.372C33.372 33.09 33.386 33.09 33.414 33.118C33.554 33.174 33.68 33.104 33.792 32.908C33.932 32.712 34.086 32.39 34.254 31.942C34.338 31.662 34.366 31.494 34.338 31.438C34.31 31.382 34.156 31.312 33.876 31.228L33.792 31.186H34.296C34.352 31.214 34.394 31.214 34.422 31.186C34.478 31.13 34.506 31.074 34.506 31.018L34.842 29.674C34.87 29.59 34.87 29.534 34.842 29.506C34.814 29.478 34.758 29.45 34.674 29.422C34.506 29.394 34.24 29.338 33.876 29.254L33.456 29.17C33.848 29.142 34.282 29.17 34.758 29.254C34.842 29.254 34.884 29.254 34.884 29.254C34.912 29.226 34.94 29.17 34.968 29.086C35.08 28.414 35.15 27.91 35.178 27.574C35.234 27.35 35.15 27.224 34.926 27.196C34.254 27.084 33.736 27.028 33.372 27.028C33.4 27 33.442 26.986 33.498 26.986C34.086 26.874 34.59 26.86 35.01 26.944C35.094 26.944 35.15 26.93 35.178 26.902C35.206 26.874 35.22 26.818 35.22 26.734L35.262 25.684C35.262 25.348 35.234 25.152 35.178 25.096C35.122 25.04 34.912 24.998 34.548 24.97ZM18 11.194C17.832 11.278 17.678 11.32 17.538 11.32C17.034 11.236 16.614 10.956 16.278 10.48C16.25 10.396 16.264 10.354 16.32 10.354C17.188 10.074 17.79 10.228 18.126 10.816C18.182 10.928 18.196 11.012 18.168 11.068C18.168 11.124 18.112 11.166 18 11.194ZM18.966 1.24C19.022 1.212 19.12 1.128 19.26 0.987999C19.12 1.128 19.022 1.212 18.966 1.24Z" fill="#1BB71F"/>
</svg>
